<svg width="60" height="60" viewBox="0 0 60 60" fill="none" xmlns="http://www.w3.org/2000/svg">
  <!-- House with roof - main house -->
  <g>
    <!-- Roof (triangle) -->
    <path d="M18 25 L28 17 L38 25 Z" fill="#2563EB"/>
    <!-- House body -->
    <rect x="21" y="25" width="14" height="18" fill="#2563EB" rx="1"/>
    <!-- Door -->
    <rect x="25" y="33" width="6" height="10" fill="#FFFFFF" opacity="0.9" rx="0.5"/>
    <!-- Window -->
    <rect x="29" y="27" width="4" height="4" fill="#FFFFFF" opacity="0.9" rx="0.5"/>
    
    <!-- Second house (smaller, behind) -->
    <path d="M8 31 L15 25 L22 31 Z" fill="#3B82F6" opacity="0.8"/>
    <rect x="10" y="31" width="10" height="12" fill="#3B82F6" opacity="0.8" rx="1"/>
    
    <!-- Third house (taller, right) -->
    <path d="M41 23 L49 15 L57 23 Z" fill="#1E40AF"/>
    <rect x="45" y="23" width="10" height="20" fill="#1E40AF" rx="1"/>
    <rect x="48" y="31" width="4" height="12" fill="#FFFFFF" opacity="0.9" rx="0.5"/>
  </g>
  
  <!-- Upward trend line with data points -->
  <g>
    <path d="M6 45 L20 40 L33 33 L46 27" stroke="#10B981" stroke-width="2" stroke-linecap="round" stroke-linejoin="round" fill="none"/>
    <circle cx="6" cy="45" r="2" fill="#10B981"/>
    <circle cx="20" cy="40" r="2" fill="#10B981"/>
    <circle cx="33" cy="33" r="2" fill="#10B981"/>
    <circle cx="46" cy="27" r="2" fill="#10B981"/>
  </g>
</svg>
